<?xml version="1.0" encoding="utf-8"?>
<!-- Generator: Adobe Illustrator 16.0.0, SVG Export Plug-In . SVG Version: 6.00 Build 0)  -->
<!DOCTYPE svg PUBLIC "-//W3C//DTD SVG 1.1//EN" "http://www.w3.org/Graphics/SVG/1.1/DTD/svg11.dtd">
<svg version="1.1" id="Layer_1" xmlns="http://www.w3.org/2000/svg" xmlns:xlink="http://www.w3.org/1999/xlink" x="0px" y="0px"
	 width="656px" height="1036px" viewBox="0 0 656 1036" enable-background="new 0 0 656 1036" xml:space="preserve">
<g>
	
		<ellipse transform="matrix(-0.2571 0.9664 -0.9664 -0.2571 883.6027 323.9812)" fill="#8C6239" stroke="#000000" stroke-width="4" stroke-miterlimit="10" cx="317.274" cy="501.616" rx="14.646" ry="14.951"/>
	
		<ellipse transform="matrix(0.2412 -0.9705 0.9705 0.2412 -230.9274 709.9464)" fill="#D3AD0D" stroke="#000000" stroke-width="4" stroke-miterlimit="10" cx="338.51" cy="502.639" rx="14.862" ry="14.5"/>
	
		<ellipse transform="matrix(-0.2571 0.9664 -0.9664 -0.2571 898.0975 341.5613)" fill="#8C6239" stroke="#000000" stroke-width="4" stroke-miterlimit="10" cx="317.765" cy="515.978" rx="14.646" ry="14.951"/>
	
		<ellipse transform="matrix(0.2412 -0.9705 0.9705 0.2412 -244.4929 721.3203)" fill="#D3AD0D" stroke="#000000" stroke-width="4" stroke-miterlimit="10" cx="339" cy="517" rx="14.862" ry="14.5"/>
	
		<ellipse transform="matrix(0.3315 -0.9434 0.9434 0.3315 -278.7979 676.1245)" fill="#8C6239" stroke="#000000" stroke-width="4" stroke-miterlimit="10" cx="337.725" cy="534.803" rx="14.646" ry="14.95"/>
	
		<ellipse transform="matrix(-0.3159 0.9488 -0.9488 -0.3159 921.5461 399.8352)" fill="#D3AD0D" stroke="#000000" stroke-width="4" stroke-miterlimit="10" cx="316.634" cy="532.131" rx="14.862" ry="14.499"/>
</g>
</svg>
